<?xml version="1.0" standalone="no"?>
<!DOCTYPE svg PUBLIC "-//W3C//DTD SVG 20010904//EN"
 "http://www.w3.org/TR/2001/REC-SVG-20010904/DTD/svg10.dtd">
<svg version="1.0" xmlns="http://www.w3.org/2000/svg"
 width="750.000000pt" height="750.000000pt" viewBox="0 0 750.000000 750.000000"
 preserveAspectRatio="xMidYMid meet">

<g transform="translate(0.000000,750.000000) scale(0.100000,-0.100000)"
fill="#000000" stroke="none">
<path d="M3152 5560 c-236 -51 -492 -180 -660 -331 -49 -45 -241 -148 -304
-164 -33 -8 -68 -41 -68 -63 0 -31 39 -82 85 -111 43 -28 44 -28 27 -52 -36
-53 -113 -141 -172 -196 -54 -51 -62 -63 -67 -103 -6 -57 24 -105 83 -134 l42
-20 4 -77 c4 -61 10 -87 34 -129 38 -66 101 -114 149 -113 26 1 38 -5 50 -24
16 -24 15 -28 -13 -81 -38 -73 -51 -116 -62 -224 -12 -106 5 -219 43 -294 52
-102 175 -179 319 -198 l79 -10 42 -81 c32 -62 63 -102 142 -181 86 -87 113
-107 196 -148 52 -26 131 -57 174 -70 76 -21 79 -23 79 -51 0 -35 31 -20 -499
-241 -306 -127 -311 -130 -370 -189 -136 -134 -202 -333 -350 -1055 -37 -183
-102 -579 -112 -689 -9 -92 -10 -91 215 -91 l184 0 -6 -82 c-3 -46 -8 -145
-12 -220 l-6 -138 50 0 50 0 6 83 c3 45 8 144 12 220 l6 138 107 -3 c76 -2
106 -7 107 -15 1 -7 2 -105 3 -218 l1 -205 930 0 930 0 0 220 0 220 114 0 113
0 7 -46 c3 -26 6 -77 6 -114 0 -37 3 -115 7 -173 l6 -107 50 0 49 0 -6 192
c-4 106 -9 205 -12 220 l-6 28 164 0 c193 0 200 2 200 76 2 119 -144 905 -232
1254 -64 255 -140 422 -230 511 -63 62 -36 49 -572 270 l-278 114 0 36 0 36
99 32 c143 47 210 90 331 211 81 81 114 122 145 182 37 71 43 78 70 78 46 0
139 26 196 56 117 59 178 148 199 290 21 145 -19 337 -89 424 -34 43 -31 61 9
53 52 -10 132 55 169 137 14 32 21 66 21 116 0 70 1 72 27 79 44 11 80 42 96
84 25 62 10 93 -91 191 -49 47 -105 109 -124 139 l-35 55 46 30 c57 39 88 89
75 123 -7 18 -32 34 -110 67 -127 54 -204 98 -264 151 -181 161 -454 288 -709
330 -127 22 -259 16 -348 -14 l-61 -21 -59 22 c-86 31 -294 35 -421 8z m444
-785 c15 -14 29 -25 32 -25 3 0 18 11 32 25 l27 26 26 -21 c44 -35 83 -195 75
-303 -3 -35 -17 -87 -32 -121 l-26 -59 41 7 c55 9 112 39 164 87 49 45 51 43
61 -47 l7 -54 -72 0 c-77 0 -73 3 -96 -69 l-7 -23 95 7 c65 5 97 4 101 -4 10
-16 61 -14 75 3 13 16 146 31 189 21 22 -4 33 -16 45 -46 13 -34 19 -39 47
-39 23 0 40 9 61 31 34 37 85 139 94 192 4 20 11 37 15 37 4 0 16 -19 25 -42
15 -37 17 -74 16 -258 -3 -441 -61 -762 -167 -932 -15 -24 -62 -78 -104 -120
-62 -61 -97 -86 -172 -122 -146 -71 -239 -88 -493 -88 -249 0 -345 16 -484 83
-72 35 -102 57 -182 138 -59 58 -107 116 -123 148 -63 126 -105 304 -131 561
-16 159 -21 542 -7 542 4 0 13 -15 20 -34 18 -48 68 -115 97 -128 35 -16 71 3
80 41 5 25 12 30 46 36 53 9 158 -4 187 -23 20 -13 29 -13 59 -3 25 10 62 11
129 6 l93 -7 -15 46 -16 46 -73 0 c-41 0 -76 4 -80 10 -3 5 -1 39 6 75 l11 67
42 -43 c47 -48 146 -99 194 -99 17 0 32 3 32 7 0 3 -16 30 -36 58 -37 54 -57
140 -47 201 15 89 78 234 103 234 5 0 21 -11 36 -25z m-564 -418 l29 -58 -56
2 c-61 3 -63 5 -40 70 26 76 27 76 33 59 2 -8 18 -41 34 -73z m1265 -24 l6
-33 -57 0 -57 0 19 28 c11 15 27 45 37 67 l17 40 15 -35 c8 -19 17 -50 20 -67z
m-1699 -375 c-3 -37 -7 -44 -28 -48 -50 -10 -91 -44 -116 -97 -23 -46 -26 -62
-23 -137 4 -75 7 -89 34 -127 35 -49 88 -80 150 -87 40 -4 45 -7 50 -36 4 -17
9 -40 12 -50 5 -17 1 -18 -42 -13 -72 10 -160 62 -194 114 -65 97 -64 290 1
414 31 58 39 65 88 85 30 12 59 23 63 23 5 1 7 -18 5 -41z m2187 11 c82 -39
132 -173 122 -327 -8 -118 -39 -181 -109 -225 -58 -37 -109 -57 -143 -57 -22
0 -23 1 -11 48 10 38 17 48 37 50 71 9 140 55 171 115 30 59 29 163 -1 234
-23 51 -73 96 -117 104 -14 3 -20 14 -22 42 -4 44 7 47 73 16z m-2172 -206 c3
-21 9 -71 13 -110 6 -68 5 -73 -13 -73 -23 0 -58 35 -68 68 -11 36 4 111 26
133 27 27 36 24 42 -18z m2136 -14 c22 -65 7 -137 -34 -159 -14 -7 -27 -11
-29 -9 -2 2 1 52 7 111 9 97 12 106 27 98 10 -5 23 -24 29 -41z m-899 -1075
c0 -52 20 -76 83 -99 36 -13 45 -20 38 -29 -16 -19 -120 -67 -176 -82 -77 -21
-205 -18 -277 7 -70 23 -151 75 -145 92 2 7 20 16 40 22 50 14 65 32 71 85 2
25 5 45 5 45 1 0 82 0 181 0 l180 0 0 -41z m500 -871 c2 -2 -2 -8 -10 -13 -20
-12 -22 -198 -2 -209 10 -6 -2 -15 -40 -33 -54 -26 -82 -18 -39 10 17 12 21
24 21 71 -1 51 -2 54 -15 36 -29 -40 -36 -45 -70 -45 -32 0 -35 -2 -35 -30 0
-28 -2 -30 -20 -20 -27 15 -30 100 -2 100 9 0 23 -4 31 -9 17 -11 51 -2 51 13
0 7 -20 10 -60 8 l-60 -4 0 -49 c0 -42 4 -54 28 -74 38 -32 24 -39 -31 -15
-50 22 -63 35 -47 45 6 3 10 49 10 106 0 85 -2 99 -16 99 -28 0 2 26 52 45 54
21 65 15 30 -16 -20 -17 -26 -32 -26 -61 0 -25 5 -38 13 -38 9 0 12 10 9 31
-10 66 79 106 126 57 11 -13 22 -39 25 -58 3 -31 4 -30 5 10 2 35 -2 48 -18
58 -11 7 -20 18 -20 26 0 9 14 6 53 -12 28 -13 54 -27 57 -29z"/>
<path d="M2873 4049 c-68 -20 -85 -99 -33 -150 34 -35 50 -31 50 12 0 22 6 32
26 39 38 15 154 13 158 -2 29 -105 39 -129 71 -157 115 -100 307 -44 331 98 9
57 12 61 43 61 56 0 82 56 39 84 -18 11 -92 15 -338 19 -188 3 -328 2 -347 -4z"/>
<path d="M3990 4050 c-113 -3 -206 -7 -207 -8 -1 -1 -7 -11 -13 -23 -18 -33
11 -69 55 -69 30 0 35 -3 35 -24 0 -66 46 -141 104 -167 131 -59 271 14 294
154 l7 42 75 3 c86 3 109 -8 114 -53 2 -17 5 -30 7 -29 34 9 48 19 57 40 16
35 15 75 -3 101 -31 44 -61 46 -525 33z"/>
<path d="M4172 1791 c-5 -3 -11 -20 -14 -38 -4 -29 -2 -32 29 -35 32 -4 33 -3
33 33 0 28 -5 38 -19 42 -10 2 -23 2 -29 -2z"/>
</g>
</svg>
